<?xml version="1.0" standalone="no"?>
<!DOCTYPE svg PUBLIC "-//W3C//DTD SVG 20010904//EN"
 "http://www.w3.org/TR/2001/REC-SVG-20010904/DTD/svg10.dtd">
<svg version="1.0" xmlns="http://www.w3.org/2000/svg"
 width="290.000000pt" height="238.000000pt" viewBox="0 0 290.000000 238.000000"
 preserveAspectRatio="xMidYMid meet">
<metadata>
Created by potrace 1.10, written by Peter Selinger 2001-2011
</metadata>
<g transform="translate(0.000000,238.000000) scale(0.100000,-0.100000)"
fill="#000000" stroke="none">
<path d="M466 1601 c-18 -7 -19 -19 -18 -209 l1 -201 75 -187 c42 -103 82
-191 88 -196 7 -4 88 -8 180 -8 134 0 169 3 181 15 9 8 48 97 89 197 l73 183
3 196 c3 162 1 197 -11 208 -10 8 -49 11 -123 9 l-109 -3 -6 -195 c-5 -180 -8
-201 -34 -275 -15 -44 -33 -86 -40 -94 -27 -29 -49 -3 -83 96 -31 96 -32 102
-32 274 0 123 -4 179 -12 187 -13 13 -190 16 -222 3z m195 -216 c5 -164 8
-187 33 -258 34 -93 61 -129 99 -129 29 0 70 29 61 43 -3 5 0 9 5 9 6 0 10 3
9 8 0 4 2 14 5 22 44 101 51 138 56 310 l6 175 72 3 c65 3 73 1 84 -19 15 -29
8 -355 -9 -384 -14 -24 -92 -217 -92 -227 0 -25 -37 -88 -55 -92 -11 -3 -81
-6 -157 -6 l-136 0 -22 37 c-12 21 -23 44 -25 53 -2 8 -20 53 -40 100 -62 145
-65 159 -65 352 0 132 3 178 13 182 6 2 44 4 82 3 l70 -2 6 -180z"/>
<path d="M1417 1598 c-9 -7 -40 -76 -70 -153 -97 -250 -92 -228 -90 -437 1
-103 4 -192 8 -198 7 -11 183 -14 209 -4 13 5 16 24 16 100 l0 94 105 0 105 0
0 -88 c0 -55 4 -92 12 -100 16 -16 210 -16 226 0 16 16 16 317 1 390 -17 79
-136 381 -156 395 -24 18 -342 18 -366 1z m353 -48 c11 -11 20 -27 20 -35 0
-9 20 -66 44 -128 64 -162 66 -174 66 -369 l0 -178 -74 0 c-85 0 -86 1 -86 87
0 39 -6 63 -21 84 -20 29 -21 29 -120 29 -86 0 -102 -3 -119 -20 -11 -11 -20
-23 -21 -27 0 -5 -2 -19 -4 -33 -2 -14 -4 -47 -6 -73 l-3 -48 -70 3 -71 3 0
190 0 190 49 130 c27 72 52 139 56 150 4 11 7 23 6 27 0 4 8 14 19 22 16 12
52 15 168 16 134 0 149 -2 167 -20z"/>
<path d="M1541 1407 c-21 -24 -71 -165 -67 -192 1 -8 10 -23 21 -35 15 -17 30
-20 100 -20 56 0 87 5 101 15 10 8 15 15 9 15 -5 0 -4 4 4 9 28 18 -36 210
-74 225 -34 13 -72 6 -94 -17z m81 -19 c9 -7 25 -45 37 -85 12 -40 24 -79 27
-88 5 -13 -8 -15 -89 -15 l-95 0 29 92 c34 107 52 126 91 96z"/>
</g>
</svg>
